<svg width="163" height="81" viewBox="0 0 163 81" fill="none" xmlns="http://www.w3.org/2000/svg">
<circle cx="9.5" cy="7.5" r="7.5" fill="#F445C3"/>
<circle cx="37.5" cy="7.5" r="7.5" fill="#C4C4C4"/>
<circle cx="65.5" cy="7.5" r="7.5" fill="#4AFFB3"/>
<path d="M7.488 52H2.376V27.988H19.368V32.488H7.488V37.564H19.116V42.064H7.488V52ZM27.7664 52H23.1944V34.612H27.7664V36.988C28.4144 36.172 29.2424 35.5 30.2504 34.972C31.2584 34.444 32.2784 34.18 33.3104 34.18V38.644C32.9984 38.572 32.5784 38.536 32.0504 38.536C31.2824 38.536 30.4664 38.728 29.6024 39.112C28.7384 39.496 28.1264 39.964 27.7664 40.516V52ZM44.6991 52.432C42.0111 52.432 39.7911 51.592 38.0391 49.912C36.2871 48.232 35.4111 46.024 35.4111 43.288C35.4111 40.72 36.2511 38.56 37.9311 36.808C39.6351 35.056 41.7951 34.18 44.4111 34.18C47.0031 34.18 49.1031 35.068 50.7111 36.844C52.3191 38.596 53.1231 40.9 53.1231 43.756V44.764H40.1991C40.3431 45.916 40.8591 46.876 41.7471 47.644C42.6351 48.412 43.7871 48.796 45.2031 48.796C45.9711 48.796 46.7991 48.64 47.6871 48.328C48.5991 48.016 49.3191 47.596 49.8471 47.068L51.8631 50.02C50.1111 51.628 47.7231 52.432 44.6991 52.432ZM48.6951 41.668C48.6231 40.684 48.2271 39.796 47.5071 39.004C46.8111 38.212 45.7791 37.816 44.4111 37.816C43.1151 37.816 42.1071 38.212 41.3871 39.004C40.6671 39.772 40.2471 40.66 40.1271 41.668H48.6951ZM64.9575 52.432C62.2695 52.432 60.0495 51.592 58.2975 49.912C56.5455 48.232 55.6695 46.024 55.6695 43.288C55.6695 40.72 56.5095 38.56 58.1895 36.808C59.8935 35.056 62.0535 34.18 64.6695 34.18C67.2615 34.18 69.3615 35.068 70.9695 36.844C72.5775 38.596 73.3815 40.9 73.3815 43.756V44.764H60.4575C60.6015 45.916 61.1175 46.876 62.0055 47.644C62.8935 48.412 64.0455 48.796 65.4615 48.796C66.2295 48.796 67.0575 48.64 67.9455 48.328C68.8575 48.016 69.5775 47.596 70.1055 47.068L72.1215 50.02C70.3695 51.628 67.9815 52.432 64.9575 52.432ZM68.9535 41.668C68.8815 40.684 68.4855 39.796 67.7655 39.004C67.0695 38.212 66.0375 37.816 64.6695 37.816C63.3735 37.816 62.3655 38.212 61.6455 39.004C60.9255 39.772 60.5055 40.66 60.3855 41.668H68.9535Z" fill="#474BFF"/>
<path d="M88.7799 52.432C85.1319 52.432 82.0839 51.28 79.6359 48.976C77.2119 46.648 75.9999 43.66 75.9999 40.012C75.9999 36.364 77.2119 33.388 79.6359 31.084C82.0839 28.756 85.1319 27.592 88.7799 27.592C93.2679 27.592 96.6159 29.548 98.8239 33.46L94.4319 35.62C93.9039 34.612 93.1239 33.784 92.0919 33.136C91.0839 32.464 89.9799 32.128 88.7799 32.128C86.5959 32.128 84.7959 32.872 83.3799 34.36C81.9639 35.848 81.2559 37.732 81.2559 40.012C81.2559 42.292 81.9639 44.176 83.3799 45.664C84.7959 47.152 86.5959 47.896 88.7799 47.896C89.9799 47.896 91.0839 47.572 92.0919 46.924C93.1239 46.276 93.9039 45.436 94.4319 44.404L98.8239 46.528C96.5439 50.464 93.1959 52.432 88.7799 52.432ZM116.879 49.804C115.199 51.556 112.967 52.432 110.183 52.432C107.399 52.432 105.167 51.556 103.487 49.804C101.831 48.028 101.003 45.856 101.003 43.288C101.003 40.72 101.831 38.56 103.487 36.808C105.167 35.056 107.399 34.18 110.183 34.18C112.967 34.18 115.199 35.056 116.879 36.808C118.559 38.56 119.399 40.72 119.399 43.288C119.399 45.856 118.559 48.028 116.879 49.804ZM106.943 46.924C107.735 47.884 108.815 48.364 110.183 48.364C111.551 48.364 112.631 47.884 113.423 46.924C114.239 45.94 114.647 44.728 114.647 43.288C114.647 41.872 114.239 40.684 113.423 39.724C112.631 38.74 111.551 38.248 110.183 38.248C108.815 38.248 107.735 38.74 106.943 39.724C106.151 40.684 105.755 41.872 105.755 43.288C105.755 44.728 106.151 45.94 106.943 46.924ZM139.711 52H135.103V49.768C133.687 51.544 131.899 52.432 129.739 52.432C127.483 52.432 125.635 51.628 124.195 50.02C122.755 48.388 122.035 46.156 122.035 43.324C122.035 40.54 122.755 38.32 124.195 36.664C125.635 35.008 127.483 34.18 129.739 34.18C131.947 34.18 133.735 35.068 135.103 36.844V27.988H139.711V52ZM131.143 48.364C131.911 48.364 132.667 48.184 133.411 47.824C134.155 47.44 134.719 46.96 135.103 46.384V40.228C134.719 39.652 134.155 39.184 133.411 38.824C132.667 38.44 131.911 38.248 131.143 38.248C129.847 38.248 128.791 38.716 127.975 39.652C127.159 40.588 126.751 41.812 126.751 43.324C126.751 44.812 127.159 46.024 127.975 46.96C128.791 47.896 129.847 48.364 131.143 48.364ZM152.776 52.432C150.088 52.432 147.868 51.592 146.116 49.912C144.364 48.232 143.488 46.024 143.488 43.288C143.488 40.72 144.328 38.56 146.008 36.808C147.712 35.056 149.872 34.18 152.488 34.18C155.08 34.18 157.18 35.068 158.788 36.844C160.396 38.596 161.2 40.9 161.2 43.756V44.764H148.276C148.42 45.916 148.936 46.876 149.824 47.644C150.712 48.412 151.864 48.796 153.28 48.796C154.048 48.796 154.876 48.64 155.764 48.328C156.676 48.016 157.396 47.596 157.924 47.068L159.94 50.02C158.188 51.628 155.8 52.432 152.776 52.432ZM156.772 41.668C156.7 40.684 156.304 39.796 155.584 39.004C154.888 38.212 153.856 37.816 152.488 37.816C151.192 37.816 150.184 38.212 149.464 39.004C148.744 39.772 148.324 40.66 148.204 41.668H156.772Z" fill="black"/>
<path d="M12.848 77L15.904 66.328H14.416L12.064 75.224L9.616 66.328H8.512L6.064 75.224L3.696 66.328H2.224L5.264 77H6.704L9.056 68.392L11.408 77H12.848ZM20.9884 77.192C22.2364 77.192 23.2764 76.76 24.0604 75.992L23.4844 75.208C22.8604 75.848 21.9804 76.2 21.0844 76.2C19.4204 76.2 18.4124 74.984 18.3164 73.528H24.5564V73.224C24.5564 70.904 23.1804 69.08 20.8444 69.08C18.6364 69.08 17.0364 70.888 17.0364 73.128C17.0364 75.544 18.6844 77.192 20.9884 77.192ZM23.3724 72.632H18.3004C18.3644 71.464 19.1804 70.072 20.8284 70.072C22.5884 70.072 23.3564 71.496 23.3724 72.632ZM28.5 74.904V71.4C28.916 70.728 29.86 70.152 30.82 70.152C32.372 70.152 33.3 71.432 33.3 73.144C33.3 74.856 32.372 76.12 30.82 76.12C29.86 76.12 28.916 75.576 28.5 74.904ZM28.5 77V75.848C29.076 76.632 30.02 77.192 31.108 77.192C33.124 77.192 34.548 75.656 34.548 73.144C34.548 70.664 33.14 69.08 31.108 69.08C30.068 69.08 29.124 69.592 28.5 70.44V66.328H27.3V77H28.5ZM40.4231 73.656V72.6H36.5831V73.656H40.4231Z" fill="black"/>
<path d="M46.308 77.192C45.1347 77.192 44.1747 76.8133 43.428 76.056C42.6813 75.288 42.308 74.312 42.308 73.128C42.308 71.9547 42.6813 70.9893 43.428 70.232C44.1747 69.464 45.1347 69.08 46.308 69.08C47.5987 69.08 48.5853 69.5387 49.268 70.456L48.164 71.48C47.7373 70.872 47.1453 70.568 46.388 70.568C45.684 70.568 45.1187 70.808 44.692 71.288C44.2653 71.7573 44.052 72.3707 44.052 73.128C44.052 73.8853 44.2653 74.504 44.692 74.984C45.1187 75.464 45.684 75.704 46.388 75.704C47.124 75.704 47.716 75.4 48.164 74.792L49.268 75.816C48.5853 76.7333 47.5987 77.192 46.308 77.192ZM54.6291 77H52.9491V70.744H50.7411V69.272H56.8531V70.744H54.6291V77ZM58.6926 80.024L58.9486 78.52C59.1406 78.6053 59.354 78.648 59.5886 78.648C60.1326 78.648 60.5006 78.424 60.6926 77.976L61.0766 77.096L57.9086 69.272H59.7006L61.9566 75.064L64.2126 69.272H66.0206L62.2926 78.392C61.834 79.5333 60.9486 80.1147 59.6366 80.136C59.2846 80.136 58.97 80.0987 58.6926 80.024ZM67.0755 78.968V75.608C67.4382 75.5227 67.7102 75.3147 67.8915 74.984C68.0835 74.6427 68.2382 73.992 68.3555 73.032L68.8195 69.272H74.7875V75.528H75.6355V78.968H73.9555V77H68.7555V78.968H67.0755ZM70.3075 70.744L70.0355 73.224C69.9288 74.248 69.5875 75.016 69.0115 75.528H73.1075V70.744H70.3075ZM79.4321 77H77.8161V69.272H79.4961V74.472L83.0481 69.272H84.7281V77H83.0481V71.656L79.4321 77ZM89.3579 77H87.4379L89.3419 74.12C88.8085 74.0027 88.3712 73.736 88.0299 73.32C87.6992 72.904 87.5339 72.376 87.5339 71.736C87.5339 71.0427 87.7579 70.4613 88.2059 69.992C88.6645 69.512 89.2939 69.272 90.0939 69.272H94.5099V77H92.8299V74.2H91.0539L89.3579 77ZM90.3019 72.728H92.8299V70.744H90.3019C89.9819 70.744 89.7259 70.84 89.5339 71.032C89.3419 71.2133 89.2459 71.448 89.2459 71.736C89.2459 72.0347 89.3365 72.2747 89.5179 72.456C89.7099 72.6373 89.9712 72.728 90.3019 72.728Z" fill="#474BFF"/>
<rect x="115.984" y="34" width="2.5" height="23" rx="1.25" transform="rotate(37.4459 115.984 34)" fill="#474BFF"/>
</svg>
