<svg width="326" height="128" viewBox="0 0 326 128" fill="none" xmlns="http://www.w3.org/2000/svg">
<path d="M52.9407 0H35.8247C18.7087 0 3.98099 12.7394 3.98099 37.4221C3.98099 52.152 11.1458 63.299 23.4853 68.8725L0.398577 110.276C-0.397516 111.47 0.398577 112.664 1.59272 112.664H12.34C13.1361 112.664 13.9322 112.266 14.3302 111.47L35.4267 70.8631H42.9895V111.47C42.9895 111.868 43.3876 112.664 44.1837 112.664H53.7368C54.5329 112.664 54.9309 112.266 54.9309 111.47V1.59243C54.5329 0.398107 54.1348 0 52.9407 0ZM42.9895 61.3085H36.6208C9.1556 61.3085 11.1458 9.55457 35.4267 9.55457H43.3876V61.3085H42.9895Z" fill="#FF0000"/>
<path d="M110.26 37.422H100.707C99.9105 37.422 99.5125 37.8201 99.5125 38.6163V67.2801H81.9984V38.6163C81.9984 37.8201 81.6004 37.422 80.8043 37.422H71.6492C70.8531 37.422 70.4551 37.8201 70.4551 38.6163V111.47C70.4551 112.266 70.8531 112.664 71.6492 112.664H81.2023C81.9984 112.664 82.3965 112.266 82.3965 111.47V76.4365H99.9105V111.47C99.9105 112.266 100.309 112.664 101.105 112.664H110.658C111.454 112.664 111.852 112.266 111.852 111.47V38.6163C111.454 37.8201 111.056 37.422 110.26 37.422ZM325.205 102.712C325.205 102.313 324.807 102.313 324.409 102.313C320.428 102.313 296.147 113.859 296.147 75.6403C296.147 58.9198 302.516 35.4315 317.642 49.3652C318.04 49.7633 318.438 49.7633 318.836 49.7633C319.234 49.7633 319.632 49.3652 320.03 48.569L324.011 41.8012C324.409 41.4031 324.409 41.005 324.409 40.6069C324.409 39.8107 323.613 39.4126 322.816 39.0145C296.545 25.8769 283.012 50.1615 283.012 78.4271C283.012 115.053 309.681 120.228 324.807 109.081C325.603 108.683 325.603 107.887 325.603 107.489L325.205 102.712ZM259.925 71.2611L278.235 38.2182C278.633 37.8201 278.235 37.0239 277.837 37.0239H268.682C265.896 37.0239 265.1 37.8201 264.304 39.8107C263.508 41.8012 249.974 70.0668 248.382 71.2611V38.2182C248.382 37.8201 247.984 37.0239 247.586 37.0239H237.635C237.237 37.0239 236.838 37.422 236.838 38.2182V111.47C236.838 111.868 237.237 112.664 237.635 112.664H247.586C248.382 112.664 248.382 112.266 248.382 111.47V73.6498C249.576 74.446 266.294 109.081 266.692 110.276C267.488 111.868 269.08 112.664 271.07 112.664H281.022C281.818 112.664 281.818 112.266 281.42 111.47L259.925 71.2611ZM172.753 103.11H170.763C168.375 103.11 167.976 102.313 167.976 100.323V38.2182C167.976 37.422 167.578 37.0239 167.18 37.0239H136.531C135.735 37.0239 135.337 37.422 135.337 38.2182C135.337 54.9387 135.735 82.8062 124.589 103.11H121.405C120.609 103.11 120.211 103.508 120.211 104.304V126.2C120.211 126.996 121.007 127.394 121.405 127.394H128.57C130.162 127.394 130.958 126.2 130.958 125.006V112.664H163.2V126.2C163.2 126.598 163.598 127.394 164.394 127.394H172.355C173.151 127.394 174.345 126.598 174.345 125.006V104.304C173.947 103.508 173.549 103.11 172.753 103.11ZM156.035 103.11H133.744C140.113 92.7589 146.084 76.0384 146.084 46.5785H156.035V103.11ZM203.801 35.4315C187.481 35.4315 179.918 55.735 179.918 78.029C179.918 114.655 205.393 120.228 222.907 109.479C223.703 109.081 223.703 108.683 223.703 108.285L222.509 103.11C222.509 102.712 222.111 102.313 221.315 102.313C214.946 102.313 192.655 113.46 192.655 77.2327C200.616 78.029 200.616 78.029 224.499 78.029C224.101 59.716 222.111 35.4315 203.801 35.4315ZM193.053 68.8725C193.053 39.8107 212.16 34.2372 212.16 68.0763C203.801 68.0763 200.218 68.0763 193.053 68.8725Z" fill="black"/>
</svg>
